<?xml version="1.0" encoding="UTF-8"?><svg id="b" xmlns="http://www.w3.org/2000/svg" width="240" height="240" viewBox="0 0 240 240"><defs><style>.d{fill:#004caf;}</style></defs><g id="c"><path class="d" d="m119.15,0c-23.7.17-46.81,7.35-66.43,20.64-19.62,13.29-34.87,32.09-43.82,54.03C-.06,96.61-2.32,120.71,2.41,143.93c4.73,23.22,16.22,44.52,33.04,61.22,16.82,16.7,38.2,28.04,61.45,32.6,23.25,4.56,47.34,2.13,69.22-6.97,21.88-9.11,40.57-24.49,53.72-44.2,13.15-19.72,20.16-42.88,20.16-66.58-.11-31.94-12.91-62.52-35.58-85.03C181.76,12.47,151.09-.11,119.15,0Zm0,224.7c-14.9.1-29.64-2.97-43.26-9.02-13.61-6.05-25.78-14.93-35.69-26.06-9.91-11.12-17.33-24.23-21.76-38.45-4.44-14.22-5.79-29.22-3.97-44.01h70.59c1.8,0,2.35.58,2.35,2.45-.05,21.31-.06,42.61-.04,63.92,0,.55.21,1.16-.38,1.78l-26.52-29.53h8.88q3.1,0,3.11-3.19c0-3.12-.05-6.24,0-9.35.03-1.55-.48-2.25-2.04-2.25-13.09.03-26.18,0-39.26.02-.54,0-1.29-.15-1.47.51-.19.66.48,1.14.9,1.6,6.92,7.65,13.85,15.3,20.78,22.95,13.67,15.12,27.34,30.25,41,45.37,2.71,2.99,2.04,2.94,4.66,0,13.42-15.18,26.82-30.39,40.19-45.63,9.19-10.42,18.39-20.83,27.6-31.23,8.95-10.13,17.89-20.26,26.83-30.39.18-.19.33-.39.47-.6.25-.42.88-.72.67-1.29s-.87-.38-1.33-.38c-4.49,0-8.97,0-13.46-.02-.47-.01-.94.08-1.36.28-.43.2-.8.49-1.09.86-8.28,9.35-16.57,18.69-24.87,28.04-5.07,5.72-10.14,11.45-15.2,17.18-10.57,11.92-21.15,23.84-31.72,35.75-.3.42-.57.86-.8,1.33-.26-.33-.45-.71-.56-1.12-.11-.41-.13-.83-.06-1.25-.02-8.18-.02-16.37,0-24.55,0-2.51.08-2.59,2.56-2.6,4.11,0,8.23-.04,12.34,0,1.52.02,2.11-.53,2.08-2.16-.09-3.51-.09-7.01,0-10.52.04-1.64-.59-2.16-2.08-2.14-4.17.06-8.34-.05-12.53.05-1.77.04-2.42-.59-2.39-2.46.08-6.3.08-12.6,0-18.9-.02-1.83.52-2.54,2.34-2.5,4.24.11,8.48,0,12.71.06,1.63.03,2.22-.64,2.19-2.3-.06-3.44,0-6.89,0-10.33,0-2.68-.03-2.7-2.63-2.7H17.53c5.12-18.98,15.45-36.14,29.82-49.56,14.37-13.41,32.21-22.54,51.49-26.34,19.28-3.8,39.25-2.14,57.64,4.81,18.39,6.95,34.46,18.91,46.41,34.52,11.95,15.61,19.29,34.25,21.19,53.82,1.9,19.56-1.71,39.27-10.42,56.89-8.71,17.62-22.18,32.45-38.88,42.82-16.7,10.36-35.97,15.85-55.63,15.83Z"/></g></svg>